<svg width="19" height="19" viewBox="0 0 19 19" fill="none" xmlns="http://www.w3.org/2000/svg">
<path d="M13.0594 0C16.7106 0 19 2.27265 19 5.94063V8.14644L18.9934 8.24508C18.9452 8.59988 18.6411 8.87335 18.2731 8.87335H18.2647L18.1499 8.86416C17.9991 8.83979 17.8588 8.76773 17.7506 8.65702C17.6154 8.51862 17.5417 8.33153 17.5462 8.13808V5.94063C17.5462 3.04969 15.9503 1.45383 13.0594 1.45383H5.94063C3.04134 1.45383 1.45383 3.04969 1.45383 5.94063V13.0677C1.45383 15.9587 3.04969 17.5462 5.94063 17.5462H13.0594C15.9587 17.5462 17.5462 15.9503 17.5462 13.0677C17.5462 12.6663 17.8716 12.3408 18.2731 12.3408C18.6746 12.3408 19 12.6663 19 13.0677C19 16.7274 16.7274 19 13.0677 19H5.94063C2.27265 19 0 16.7274 0 13.0677V5.94063C0 2.27265 2.27265 0 5.94063 0H13.0594ZM5.46438 7.17722C5.65721 7.18376 5.83953 7.26668 5.97117 7.40773C6.10282 7.54878 6.17299 7.73638 6.16623 7.9292V14.0035C6.15238 14.405 5.81571 14.7192 5.41425 14.7054C5.01278 14.6915 4.69856 14.3548 4.7124 13.9534V7.87071L4.72535 7.75704C4.7545 7.60803 4.83036 7.47102 4.94341 7.36676C5.08472 7.23644 5.27236 7.16817 5.46438 7.17722ZM9.53342 4.32806C9.93488 4.32806 10.2603 4.65351 10.2603 5.05497V13.9617C10.2603 14.3632 9.93488 14.6887 9.53342 14.6887C9.13196 14.6887 8.80651 14.3632 8.80651 13.9617V5.05497C8.80651 4.65351 9.13196 4.32806 9.53342 4.32806ZM13.5607 10.3857C13.9621 10.3857 14.2876 10.7111 14.2876 11.1126V13.9534C14.2876 14.3548 13.9621 14.6803 13.5607 14.6803C13.1592 14.6803 12.8338 14.3548 12.8338 13.9534V11.1126C12.8338 10.7111 13.1592 10.3857 13.5607 10.3857Z" fill="#6C7894"/>
</svg>
