<svg width="19" height="19" viewBox="0 0 19 19" fill="none" xmlns="http://www.w3.org/2000/svg">
<path d="M2.15141 8.26944C2.46955 8.05147 2.90616 8.12945 3.12447 8.45171C5.5436 11.991 9.96575 15.9784 12.7804 17.1576C13.9196 17.6893 14.7676 17.7222 15.3974 17.2675C15.8881 16.9668 17.2856 15.5697 17.2604 14.8425C17.252 14.757 17.155 14.5963 16.9899 14.4253C16.4525 13.871 14.6501 12.4974 14.2732 12.3546C13.9727 12.2935 13.6667 12.472 13.1956 12.7699L12.953 12.9221C12.6218 13.1222 12.1908 13.0132 11.993 12.6816C11.7934 12.3471 11.9007 11.9139 12.2319 11.7138L12.4502 11.5776C12.9726 11.2469 13.6891 10.7968 14.5988 10.9857C15.3125 11.1341 17.5608 12.9972 17.99 13.4407C18.394 13.856 18.6188 14.2994 18.6571 14.7598C18.7177 16.4895 16.4152 18.2991 16.1521 18.4513C15.6492 18.8158 15.0606 19 14.3991 19C13.7404 19 13.009 18.8177 12.2169 18.4475C9.16995 17.1716 4.56214 13.0405 1.97229 9.24939C1.75305 8.92994 1.83328 8.49117 2.15141 8.26944ZM4.17861 0.203246C4.65907 0.242707 5.09942 0.469138 5.51365 0.875962C5.95307 1.30721 7.80309 3.57246 7.95143 4.29215C8.11097 5.06352 7.76671 5.66577 7.51575 6.10548C7.26852 6.53861 7.18269 6.7237 7.26758 6.95765C7.89266 8.49662 8.85732 9.7528 10.1252 10.6651C10.4396 10.8925 10.5124 11.3312 10.2875 11.6488C10.1513 11.8405 9.93674 11.9438 9.71843 11.9438C9.57755 11.9438 9.43481 11.9015 9.31166 11.8123C7.82548 10.7421 6.69849 9.2802 5.96146 7.46406C5.63773 6.56679 6.0221 5.89408 6.30292 5.4027C6.51377 5.03439 6.63038 4.81454 6.58094 4.57965C6.45033 4.24048 5.08543 2.42433 4.53592 1.88503C4.36613 1.71686 4.20659 1.6182 4.08811 1.60881C3.45931 1.57968 2.05429 2.92417 1.74456 3.44092C1.26409 4.10612 1.29768 4.95923 1.81359 6.10078C1.97313 6.45499 1.81826 6.87215 1.46654 7.03375C1.11575 7.19535 0.699658 7.03845 0.540125 6.68424C-0.193169 5.06164 -0.180108 3.70682 0.581174 2.66016C0.741641 2.38769 2.51703 0.0933194 4.17861 0.203246ZM11.8651 3.34265C13.8057 3.72316 15.304 5.23207 15.6827 7.18633C15.7564 7.56779 15.5092 7.93891 15.1295 8.01313C15.0847 8.02159 15.039 8.02535 14.9942 8.02535C14.6668 8.02535 14.3738 7.79234 14.3085 7.45598C14.0398 6.06733 12.9753 4.99625 11.5974 4.7266C11.2186 4.65237 10.9704 4.28125 11.0441 3.8998C11.1188 3.51834 11.491 3.27782 11.8651 3.34265ZM11.809 0.00565971C15.6135 0.430335 18.5691 3.40306 18.9954 7.23359C19.0393 7.62068 18.7622 7.97019 18.3788 8.01247C18.3517 8.01529 18.3256 8.01717 18.2995 8.01717C17.9487 8.01717 17.6455 7.75128 17.6053 7.39143C17.2508 4.21953 14.8047 1.75791 11.6541 1.40558C11.2697 1.36236 10.9936 1.01473 11.0356 0.627639C11.0794 0.240546 11.4255 -0.0441362 11.809 0.00565971Z" fill="#6C7894"/>
</svg>
