<svg width="17" height="19" viewBox="0 0 17 19" fill="none" xmlns="http://www.w3.org/2000/svg">
<path d="M12.1393 0C15.1742 0 16.9918 1.85386 17 4.94923V14.0508C17 17.1461 15.1906 19 12.1476 19H9.44993C9.10397 18.9611 8.84211 18.6629 8.84211 18.3079C8.84211 17.953 9.10397 17.6548 9.44993 17.6159H12.1393C14.4586 17.6159 15.6265 16.4163 15.6265 14.0508V4.94923C15.6265 2.58366 14.4586 1.38411 12.1393 1.38411H4.85244C2.53314 1.38411 1.35704 2.58366 1.35704 4.94923V14.0508C1.35704 16.4163 2.53314 17.6159 4.85244 17.6159C5.1984 17.6548 5.46026 17.953 5.46026 18.3079C5.46026 18.6629 5.1984 18.9611 4.85244 19C1.81761 19 0 17.1461 0 14.0508V4.94923C0 1.84547 1.81761 0 4.85244 0H12.1393ZM11.8926 12.8344C12.2651 12.8344 12.567 13.1424 12.567 13.5223C12.567 13.9022 12.2651 14.2102 11.8926 14.2102H5.08273C4.71026 14.2102 4.40832 13.9022 4.40832 13.5223C4.40832 13.1424 4.71026 12.8344 5.08273 12.8344H11.8926ZM11.8926 8.80795C12.1528 8.77868 12.4066 8.90381 12.5457 9.13004C12.6848 9.35627 12.6848 9.64373 12.5457 9.86996C12.4066 10.0962 12.1528 10.2213 11.8926 10.1921H5.08273C4.73677 10.1531 4.47491 9.85499 4.47491 9.5C4.47491 9.14501 4.73677 8.84685 5.08273 8.80795H11.8926ZM7.68166 4.78985C8.02762 4.82875 8.28948 5.1269 8.28948 5.4819C8.28948 5.83689 8.02762 6.13504 7.68166 6.17395H5.09095C4.745 6.13504 4.48314 5.83689 4.48314 5.4819C4.48314 5.1269 4.745 4.82875 5.09095 4.78985H7.68166Z" fill="#6C7894"/>
</svg>
