<svg width="20" height="20" viewBox="0 0 20 20" fill="none" xmlns="http://www.w3.org/2000/svg">
<path d="M2.49934 5.02936C2.81483 4.93213 3.16339 5.04366 3.36229 5.31715C3.58329 5.62103 3.55714 6.03908 3.3 6.31304L2.59565 6.83478C2.26191 7.11206 2.06776 7.52264 2.06522 7.95652V15.913C2.07474 17.2091 3.12562 18.2561 4.42174 18.2609H8.42174V18.2783C8.85396 18.2783 9.20435 18.6286 9.20435 19.0609C9.20435 19.4931 8.85396 19.8435 8.42174 19.8435H4.42174C2.25781 19.8387 0.504782 18.0857 0.5 15.9217V7.95652C0.513835 7.0361 0.945876 6.17202 1.67391 5.6087L2.39565 5.06957L2.49934 5.02936ZM7.62174 0.800001C8.94214 -0.261357 10.8231 -0.261357 12.1435 0.800001L18.1522 5.59131C18.8642 6.16396 19.2822 7.02547 19.2913 7.93913L19.2826 15.913C19.2826 18.079 17.5268 19.8348 15.3609 19.8348H13.6217C12.5734 19.8348 11.7222 18.9875 11.7174 17.9391V14.3391L11.7093 14.2485C11.6666 14.0132 11.4606 13.8348 11.213 13.8348H8.60435C8.46907 13.8348 8.33945 13.8891 8.24461 13.9856C8.14977 14.082 8.09767 14.2126 8.1 14.3478V15.7217C8.1 16.154 7.74961 16.5043 7.31739 16.5043C6.88517 16.5043 6.53478 16.154 6.53478 15.7217V14.3478C6.53478 13.7966 6.75374 13.268 7.14349 12.8783C7.53324 12.4885 8.06185 12.2696 8.61304 12.2696H11.2217C12.3661 12.2744 13.2913 13.2034 13.2913 14.3478V17.9391C13.2913 18.1216 13.4392 18.2696 13.6217 18.2696H15.4043C16.701 18.2696 17.7522 17.2184 17.7522 15.9217V7.95652C17.7458 7.51526 17.5415 7.10023 17.1957 6.82609L11.187 2.03478C10.4293 1.41099 9.33595 1.41099 8.57826 2.03478L6.64783 3.47826C6.29004 3.73519 5.79171 3.65344 5.53478 3.29565C5.27785 2.93787 5.35961 2.43954 5.71739 2.18261L7.62174 0.800001Z" fill="#2990F1"/>
</svg>
