<svg width="20" height="20" viewBox="0 0 20 20" fill="none" xmlns="http://www.w3.org/2000/svg">
<path d="M13.7472 -0.000183105C17.6082 -0.000183105 20.0002 2.39282 20.0002 6.25582V13.7558C20.0002 17.6078 17.6082 19.9998 13.7472 19.9998H6.2442C2.3922 19.9998 0.000196727 17.6078 0.00119891 13.7528C0.00119891 13.3308 0.343199 12.9878 0.766199 12.9878C1.1882 12.9878 1.5312 13.3308 1.5312 13.7528C1.5312 16.7868 3.2022 18.4668 6.2542 18.4668H13.7472C16.7902 18.4668 18.4702 16.7958 18.4702 13.7528V6.25282C18.4702 3.20982 16.8002 1.52982 13.7472 1.52982H6.2532C3.2102 1.52982 1.5302 3.20982 1.5302 6.25282V8.58382C1.5302 9.00182 1.1912 9.33982 0.774199 9.33982H0.763199C0.341199 9.33982 -0.000801085 8.99682 0.000196727 8.57482V6.25282C0.000196727 2.39282 2.4102 -0.000183105 6.2542 -0.000183105H13.7472ZM9.9947 8.62572C10.4087 8.62572 10.7447 8.96172 10.7447 9.37572V13.7957C10.7447 14.2097 10.4087 14.5457 9.9947 14.5457C9.5807 14.5457 9.2447 14.2097 9.2447 13.7957V9.37572C9.2447 8.96172 9.5807 8.62572 9.9947 8.62572ZM10.005 5.45392C10.419 5.45392 10.755 5.78992 10.755 6.20392C10.755 6.61792 10.419 6.95392 10.005 6.95392H9.995C9.581 6.95392 9.25 6.61792 9.25 6.20392C9.25 5.78992 9.591 5.45392 10.005 5.45392Z" fill="#6C7894"/>
</svg>
