<svg width="19" height="18" viewBox="0 0 19 18" fill="none" xmlns="http://www.w3.org/2000/svg">
<path d="M12.016 11.8441C12.4092 11.8441 12.7284 12.1391 12.7284 12.5025V13.3071C12.7284 15.3985 10.8872 17.1 8.62315 17.1H4.11357C1.84583 17.1 0 15.3942 0 13.2977C0 12.9343 0.319204 12.6401 0.712427 12.6401C1.10565 12.6401 1.42485 12.9343 1.42485 13.2977C1.42485 14.6691 2.63135 15.7832 4.11357 15.7832H8.62315C10.1017 15.7832 11.3035 14.6726 11.3035 13.3071V12.5025C11.3035 12.1391 11.6227 11.8441 12.016 11.8441ZM18.2874 7.89094C18.576 7.89094 18.836 8.05169 18.9461 8.29879C19.0562 8.54504 18.9942 8.82891 18.7907 9.01702L16.0872 11.5043C15.9475 11.6317 15.7661 11.6967 15.5838 11.6967C15.4016 11.6967 15.2184 11.6317 15.0796 11.5026C14.802 11.2444 14.802 10.828 15.0814 10.5715L16.5627 9.20855H7.17164C6.77842 9.20855 6.45829 8.91356 6.45829 8.55017C6.45829 8.18678 6.77842 7.89094 7.17164 7.89094H18.2874ZM8.61408 0C10.8827 0 12.7286 1.70579 12.7286 3.80234V4.59837C12.7286 4.96091 12.4094 5.2559 12.0161 5.2559C11.6229 5.2559 11.3037 4.96091 11.3037 4.59837V3.80234C11.3037 2.43086 10.0972 1.31675 8.61408 1.31675H4.10543C2.62691 1.31675 1.42504 2.4283 1.42504 3.79293V10.304C1.42504 10.6674 1.10584 10.9624 0.712612 10.9624C0.319389 10.9624 0.000185046 10.6674 0.000185046 10.304V3.79293C0.000185046 1.70152 1.84139 0 4.10543 0H8.61408ZM15.0777 5.60039C15.3553 5.34046 15.805 5.33875 16.0853 5.59526L16.7663 6.21772C17.0466 6.47423 17.0485 6.89064 16.7718 7.14886C16.6321 7.27882 16.4489 7.34466 16.2657 7.34466C16.0844 7.34466 15.903 7.28053 15.7643 7.15399L15.0824 6.53067C14.8029 6.27501 14.8011 5.85775 15.0777 5.60039Z" fill="#6C7894"/>
</svg>
